<?xml version="1.0" encoding="utf-8"?>
<!-- Generator: Adobe Illustrator 18.1.1, SVG Export Plug-In . SVG Version: 6.00 Build 0)  -->
<!DOCTYPE svg PUBLIC "-//W3C//DTD SVG 1.1//EN" "http://www.w3.org/Graphics/SVG/1.1/DTD/svg11.dtd">
<svg version="1.1" id="Calque_1" xmlns="http://www.w3.org/2000/svg" xmlns:xlink="http://www.w3.org/1999/xlink" x="0px" y="0px"
	 viewBox="0 0 187.7 154.2" enable-background="new 0 0 187.7 154.2" xml:space="preserve">
<path fill="#FFFFFF" d="M183.8,94.6h-7.1v-4.2c0,0,0,0,0,0c0-27.2-8.4-50.1-24.1-66.2C138.6,9.9,119.7,2,99.4,2S60.2,9.9,46.2,24.2
	C30.4,40.3,22.1,63.2,22,90.4c0,0,0,0,0,0v4.2H15c-1,0-1.9,0.8-1.9,1.9v12.1C2,109.7,2,122,2,126.1v8.2c0,9.8,8,17.9,17.9,17.9h62.3
	c9.8,0,17.9-8,17.9-17.9V69.2h1.9c1,0,1.9-0.8,1.9-1.9V46.1c0-1-0.8-1.9-1.9-1.9H100v-9.6c0-1-0.8-1.9-1.9-1.9c-1,0-1.9,0.8-1.9,1.9
	v9.6h-1.9c-1,0-1.9,0.8-1.9,1.9v21.3c0,1,0.8,1.9,1.9,1.9h1.9v65.2c0,7.8-6.3,14.1-14.1,14.1H19.9c-7.8,0-14.1-6.3-14.1-14.1v-8.2
	c0-10.8,3.5-13.4,7.4-13.9v11.8c0,1,0.8,1.9,1.9,1.9H22v4.2c0,0.8,0.5,1.5,1.3,1.8l17.9,5.6c0.2,0.1,0.4,0.1,0.6,0.1
	c0.4,0,0.8-0.1,1.1-0.4c0.3-0.2,0.5-0.5,0.6-0.8c1.2,0.7,2.7,1.1,4.3,1.1h0.1c4.3,0,7.9-3,7.9-6.7V89.8c0-3.7-3.5-6.7-8-6.7
	c-1.6,0-3.1,0.4-4.3,1.1c-0.1-0.3-0.3-0.6-0.6-0.8c-0.5-0.4-1.1-0.5-1.7-0.3l-15.4,4.8C27.1,31.5,64.5,5.7,99.4,5.7
	s72.3,25.8,73.5,82.2l-15.4-4.8c-0.6-0.2-1.2-0.1-1.7,0.3c-0.3,0.2-0.5,0.5-0.6,0.8c-1.3-0.7-2.8-1.1-4.4-1.1c-4.3,0-7.9,3-7.9,6.7
	v41.1c0,3.7,3.5,6.7,7.9,6.7h0.1c1.6,0,3.1-0.4,4.3-1.1c0.1,0.3,0.3,0.6,0.6,0.8c0.3,0.2,0.7,0.4,1.1,0.4c0.2,0,0.4,0,0.6-0.1
	l17.9-5.6c0.8-0.2,1.3-1,1.3-1.8V126h7.1c1,0,1.9-0.8,1.9-1.9V96.5C185.7,95.5,184.8,94.6,183.8,94.6z M96.2,47.9h3.8v17.6h-3.8
	V47.9z M16.8,122.3V98.4H22v23.9H16.8z M47.9,86.8c2.3,0,4.2,1.4,4.2,3v41.1c0,1.6-1.9,3-4.2,3h-0.1c-2.3,0-4.2-1.4-4.2-3V89.8
	C43.6,88.1,45.5,86.8,47.9,86.8z M39.9,89.8v41.1v2.3l-14.2-4.4v-4.7V96.5v-4.7l14.2-4.4V89.8z M151,133.9h-0.1
	c-2.3,0-4.2-1.4-4.2-3V89.8c0-1.6,1.9-3,4.3-3c2.3,0,4.2,1.4,4.2,3v41.1C155.1,132.5,153.2,133.9,151,133.9z M173,128.8l-14.2,4.4
	v-2.3V89.8v-2.3l14.2,4.4v4.7v27.6V128.8z M181.9,122.3h-5.2V98.4h5.2V122.3z"/>
</svg>
