<svg xmlns="http://www.w3.org/2000/svg" viewBox="0 0 187.7 154.2"><path fill="#FFF" d="M183.8 94.6h-7.1v-4.2c0-27.2-8.4-50.1-24.1-66.2C138.6 9.9 119.7 2 99.4 2S60.2 9.9 46.2 24.2C30.4 40.3 22.1 63.2 22 90.4v4.2h-7c-1 0-1.9.8-1.9 1.9v12.1C2 109.7 2 122 2 126.1v8.2c0 9.8 8 17.9 17.9 17.9h62.3c9.8 0 17.9-8 17.9-17.9V69.2h1.9c1 0 1.9-.8 1.9-1.9V46.1c0-1-.8-1.9-1.9-1.9h-2v-9.6c0-1-.8-1.9-1.9-1.9-1 0-1.9.8-1.9 1.9v9.6h-1.9c-1 0-1.9.8-1.9 1.9v21.3c0 1 .8 1.9 1.9 1.9h1.9v65.2c0 7.8-6.3 14.1-14.1 14.1H19.9c-7.8 0-14.1-6.3-14.1-14.1v-8.2c0-10.8 3.5-13.4 7.4-13.9v11.8c0 1 .8 1.9 1.9 1.9H22v4.2c0 .8.5 1.5 1.3 1.8l17.9 5.6c.2.1.4.1.6.1.4 0 .8-.1 1.1-.4.3-.2.5-.5.6-.8 1.2.7 2.7 1.1 4.3 1.1h.1c4.3 0 7.9-3 7.9-6.7V89.8c0-3.7-3.5-6.7-8-6.7-1.6 0-3.1.4-4.3 1.1-.1-.3-.3-.6-.6-.8-.5-.4-1.1-.5-1.7-.3l-15.4 4.8C27.1 31.5 64.5 5.7 99.4 5.7s72.3 25.8 73.5 82.2l-15.4-4.8c-.6-.2-1.2-.1-1.7.3-.3.2-.5.5-.6.8-1.3-.7-2.8-1.1-4.4-1.1-4.3 0-7.9 3-7.9 6.7v41.1c0 3.7 3.5 6.7 7.9 6.7h.1c1.6 0 3.1-.4 4.3-1.1.1.3.3.6.6.8.3.2.7.4 1.1.4.2 0 .4 0 .6-.1l17.9-5.6c.8-.2 1.3-1 1.3-1.8V126h7.1c1 0 1.9-.8 1.9-1.9V96.5c0-1-.9-1.9-1.9-1.9zM96.2 47.9h3.8v17.6h-3.8V47.9zm-79.4 74.4V98.4H22v23.9h-5.2zm31.1-35.5c2.3 0 4.2 1.4 4.2 3v41.1c0 1.6-1.9 3-4.2 3h-.1c-2.3 0-4.2-1.4-4.2-3V89.8c0-1.7 1.9-3 4.3-3zm-8 3v43.4l-14.2-4.4V91.8l14.2-4.4v2.4zM151 133.9h-.1c-2.3 0-4.2-1.4-4.2-3V89.8c0-1.6 1.9-3 4.3-3 2.3 0 4.2 1.4 4.2 3v41.1c-.1 1.6-2 3-4.2 3zm22-5.1l-14.2 4.4V87.5l14.2 4.4V128.8zm8.9-6.5h-5.2V98.4h5.2v23.9z"/></svg>